<svg xmlns="http://www.w3.org/2000/svg" xmlns:xlink="http://www.w3.org/1999/xlink" width="500" zoomAndPan="magnify" viewBox="0 0 375 374.999991" height="500" preserveAspectRatio="xMidYMid meet" version="1.0"><defs><g/><clipPath id="a8b5290850"><path d="M 145 123 L 197 123 L 197 194.894531 L 145 194.894531 Z M 145 123 " clip-rule="nonzero"/></clipPath><clipPath id="56eec53256"><path d="M 163 117 L 235.710938 117 L 235.710938 192 L 163 192 Z M 163 117 " clip-rule="nonzero"/></clipPath><clipPath id="2fa97b6a45"><path d="M 199 99.644531 L 221 99.644531 L 221 121 L 199 121 Z M 199 99.644531 " clip-rule="nonzero"/></clipPath></defs><rect x="-37.5" width="450" fill="#ffffff" y="-37.499999" height="449.999989" fill-opacity="1"/><rect x="-37.5" width="450" fill="#ffffff" y="-37.499999" height="449.999989" fill-opacity="1"/><path fill="#223a66" d="M 150.910156 133.929688 C 151.519531 130.109375 153.070312 127.964844 154.585938 126.765625 C 155.46875 126.0625 156.664062 127.046875 156.15625 128.054688 C 153.59375 133.140625 155.070312 139.847656 157.832031 146.152344 C 154.746094 142.285156 152.117188 138.074219 150.910156 133.929688 " fill-opacity="1" fill-rule="nonzero"/><g clip-path="url(#a8b5290850)"><path fill="#223a66" d="M 189.246094 162.394531 C 185.414062 158.894531 174.570312 149.863281 174.417969 144.421875 C 174.261719 138.976562 164.933594 145.488281 174.519531 157.929688 C 174.519531 157.929688 145.007812 145.503906 150.1875 124.203125 C 150.484375 122.980469 148.449219 122.621094 147.960938 123.78125 C 145.851562 128.796875 138.953125 142.226562 163.476562 164.6875 C 180.371094 180.160156 188.261719 181.585938 189.957031 194.976562 C 189.957031 194.976562 204.441406 176.28125 189.246094 162.394531 " fill-opacity="1" fill-rule="nonzero"/></g><path fill="#223a66" d="M 155.675781 134.019531 C 155.644531 137.730469 156.855469 141.839844 158.613281 145.832031 C 157.523438 141.003906 157.527344 136.316406 159.695312 132.679688 C 160.269531 131.710938 159.148438 130.644531 158.21875 131.28125 C 157.351562 131.875 156.457031 132.746094 155.675781 134.019531 " fill-opacity="1" fill-rule="nonzero"/><g clip-path="url(#56eec53256)"><path fill="#08877b" d="M 225.855469 121.667969 C 216.796875 115.835938 203.507812 116.6875 188.226562 124.019531 C 177.105469 117.835938 163.0625 118.1875 163.0625 118.1875 C 183.917969 124.871094 188.296875 136.578125 188.296875 136.578125 C 199.339844 128.71875 213.878906 127.410156 219.78125 131.101562 C 235.617188 141.007812 216.296875 177.390625 196.757812 191.5 C 224.175781 175.925781 234.855469 156.21875 235.574219 142.410156 C 236.039062 133.5 232.496094 125.941406 225.855469 121.667969 " fill-opacity="1" fill-rule="nonzero"/></g><g clip-path="url(#2fa97b6a45)"><path fill="#08877b" d="M 220.449219 110.21875 C 220.449219 116.050781 215.722656 120.773438 209.894531 120.773438 C 204.066406 120.773438 199.339844 116.050781 199.339844 110.21875 C 199.339844 104.390625 204.066406 99.667969 209.894531 99.667969 C 215.722656 99.667969 220.449219 104.390625 220.449219 110.21875 " fill-opacity="1" fill-rule="nonzero"/></g><g fill="#000000" fill-opacity="1"><g transform="translate(126.779385, 269.542885)"><g><path d="M 5.328125 -6.609375 C 5.367188 -4.925781 5.378906 -3.117188 5.40625 -1.773438 L 1.835938 -6.800781 C 1.46875 -6.8125 1.054688 -6.75 0.714844 -6.625 C 0.765625 -4.222656 0.777344 -2.023438 0.792969 0.0234375 C 1.15625 0.0742188 1.582031 0.0234375 1.734375 -0.0117188 L 1.734375 -5.152344 L 5.40625 0.0390625 C 5.65625 0.0742188 6.171875 0.0625 6.359375 -0.0117188 L 6.359375 -6.785156 C 6.070312 -6.800781 5.667969 -6.738281 5.328125 -6.609375 Z M 5.328125 -6.609375 "/></g></g></g><g fill="#000000" fill-opacity="1"><g transform="translate(136.809136, 269.542885)"><g><path d="M 0.792969 0.0234375 C 1.21875 0.0742188 1.632812 0.0234375 1.796875 -0.0234375 L 1.796875 -6.800781 C 1.457031 -6.8125 1.054688 -6.75 0.714844 -6.625 C 0.765625 -4.222656 0.777344 -2.023438 0.792969 0.0234375 Z M 0.792969 0.0234375 "/></g></g></g><g fill="#000000" fill-opacity="1"><g transform="translate(142.26393, 269.542885)"><g><path d="M 0.792969 0 L 5.191406 0 C 5.253906 -0.238281 5.253906 -0.640625 5.191406 -0.878906 L 1.796875 -0.878906 L 1.796875 -2.980469 L 4.648438 -2.980469 C 4.699219 -3.21875 4.699219 -3.59375 4.648438 -3.832031 L 1.796875 -3.832031 L 1.796875 -5.84375 L 5.117188 -5.84375 C 5.164062 -6.082031 5.164062 -6.484375 5.117188 -6.722656 L 2.046875 -6.722656 C 1.382812 -6.722656 1.03125 -6.6875 0.714844 -6.597656 C 0.765625 -4.234375 0.777344 -2.023438 0.792969 0 Z M 0.792969 0 "/></g></g></g><g fill="#000000" fill-opacity="1"><g transform="translate(150.747747, 269.542885)"><g><path d="M 3.429688 0.175781 C 5.191406 0.175781 6.160156 -0.691406 6.171875 -2.351562 L 6.207031 -6.800781 C 5.871094 -6.8125 5.46875 -6.75 5.128906 -6.625 C 5.164062 -4.988281 5.203125 -3.417969 5.191406 -2.25 C 5.164062 -1.21875 4.625 -0.714844 3.558594 -0.714844 C 2.375 -0.714844 1.785156 -1.207031 1.785156 -2.238281 L 1.785156 -6.800781 C 1.445312 -6.8125 1.042969 -6.75 0.703125 -6.625 C 0.742188 -4.488281 0.765625 -3.140625 0.765625 -2.136719 C 0.777344 -0.589844 1.695312 0.175781 3.429688 0.175781 Z M 3.429688 0.175781 "/></g></g></g><g fill="#000000" fill-opacity="1"><g transform="translate(160.576404, 269.542885)"><g><path d="M 0.792969 0.0234375 C 1.21875 0.0742188 1.632812 0.0234375 1.796875 -0.0234375 L 1.796875 -2.5625 L 2.839844 -2.5625 C 4.648438 -2.5625 5.59375 -3.292969 5.59375 -4.738281 C 5.59375 -6.109375 4.648438 -6.851562 2.964844 -6.851562 C 2.136719 -6.851562 1.332031 -6.761719 0.714844 -6.636719 C 0.765625 -4.199219 0.777344 -2.023438 0.792969 0.0234375 Z M 1.796875 -3.429688 L 1.796875 -5.917969 C 1.796875 -5.917969 2.199219 -5.96875 2.816406 -5.96875 C 3.882812 -5.96875 4.511719 -5.53125 4.511719 -4.714844 C 4.511719 -4.222656 4.410156 -3.910156 4.148438 -3.632812 C 3.859375 -3.492188 3.457031 -3.429688 2.929688 -3.429688 Z M 1.796875 -3.429688 "/></g></g></g><g fill="#000000" fill-opacity="1"><g transform="translate(169.349295, 269.542885)"><g/></g></g><g fill="#000000" fill-opacity="1"><g transform="translate(174.816652, 269.542885)"><g><path d="M 0.792969 0.0234375 C 1.21875 0.0742188 1.632812 0.0234375 1.796875 -0.0234375 L 1.796875 -2.5625 L 2.839844 -2.5625 C 4.648438 -2.5625 5.59375 -3.292969 5.59375 -4.738281 C 5.59375 -6.109375 4.648438 -6.851562 2.964844 -6.851562 C 2.136719 -6.851562 1.332031 -6.761719 0.714844 -6.636719 C 0.765625 -4.199219 0.777344 -2.023438 0.792969 0.0234375 Z M 1.796875 -3.429688 L 1.796875 -5.917969 C 1.796875 -5.917969 2.199219 -5.96875 2.816406 -5.96875 C 3.882812 -5.96875 4.511719 -5.53125 4.511719 -4.714844 C 4.511719 -4.222656 4.410156 -3.910156 4.148438 -3.632812 C 3.859375 -3.492188 3.457031 -3.429688 2.929688 -3.429688 Z M 1.796875 -3.429688 "/></g></g></g><g fill="#000000" fill-opacity="1"><g transform="translate(183.589543, 269.542885)"><g><path d="M 3.933594 -6.722656 C 3.570312 -6.785156 2.953125 -6.785156 2.589844 -6.722656 L 0.125 -0.0898438 C 0.425781 0.0234375 0.84375 0.125 1.144531 0.113281 L 1.808594 -1.796875 L 4.648438 -1.796875 L 5.339844 0.113281 C 5.644531 0.125 6.097656 0.0234375 6.398438 -0.0898438 Z M 2.113281 -2.640625 L 3.203125 -5.769531 L 4.347656 -2.640625 Z M 2.113281 -2.640625 "/></g></g></g><g fill="#000000" fill-opacity="1"><g transform="translate(193.028571, 269.542885)"><g><path d="M 4.902344 -6.800781 L 3.042969 -3.382812 L 1.132812 -6.800781 C 0.828125 -6.8125 0.378906 -6.738281 0.0742188 -6.609375 L 2.515625 -2.414062 C 2.527344 -1.496094 2.527344 -0.691406 2.527344 0.0234375 C 2.941406 0.0742188 3.367188 0.0234375 3.519531 -0.0234375 L 3.519531 -2.414062 L 5.957031 -6.609375 C 5.65625 -6.738281 5.203125 -6.8125 4.902344 -6.800781 Z M 4.902344 -6.800781 "/></g></g></g><g fill="#000000" fill-opacity="1"><g transform="translate(201.97743, 269.542885)"><g/></g></g><g fill="#000000" fill-opacity="1"><g transform="translate(207.444784, 269.542885)"><g><path d="M 0.792969 0.0234375 C 1.21875 0.0742188 1.632812 0.0234375 1.796875 -0.0234375 L 1.796875 -2.929688 L 4.613281 -2.929688 C 4.675781 -3.167969 4.675781 -3.570312 4.613281 -3.808594 L 1.796875 -3.808594 L 1.796875 -5.84375 L 5.066406 -5.84375 C 5.117188 -6.082031 5.117188 -6.484375 5.066406 -6.722656 L 2.046875 -6.722656 C 1.382812 -6.722656 1.03125 -6.6875 0.714844 -6.597656 C 0.765625 -4.222656 0.777344 -2.023438 0.792969 0.0234375 Z M 0.792969 0.0234375 "/></g></g></g><g fill="#000000" fill-opacity="1"><g transform="translate(215.727505, 269.542885)"><g><path d="M 3.933594 -6.722656 C 3.570312 -6.785156 2.953125 -6.785156 2.589844 -6.722656 L 0.125 -0.0898438 C 0.425781 0.0234375 0.84375 0.125 1.144531 0.113281 L 1.808594 -1.796875 L 4.648438 -1.796875 L 5.339844 0.113281 C 5.644531 0.125 6.097656 0.0234375 6.398438 -0.0898438 Z M 2.113281 -2.640625 L 3.203125 -5.769531 L 4.347656 -2.640625 Z M 2.113281 -2.640625 "/></g></g></g><g fill="#000000" fill-opacity="1"><g transform="translate(225.166532, 269.542885)"><g><path d="M 0.792969 0 L 3.09375 0 C 5.339844 0 6.546875 -1.195312 6.546875 -3.40625 C 6.546875 -5.628906 5.316406 -6.851562 2.964844 -6.851562 C 2.136719 -6.851562 1.332031 -6.761719 0.714844 -6.636719 C 0.765625 -4.234375 0.777344 -2.023438 0.792969 0 Z M 1.796875 -0.878906 L 1.796875 -5.917969 C 1.796875 -5.917969 2.238281 -5.96875 2.867188 -5.96875 C 4.601562 -5.96875 5.453125 -5.066406 5.453125 -3.40625 C 5.453125 -2.476562 5.253906 -1.773438 4.777344 -1.195312 C 4.375 -0.992188 3.820312 -0.878906 3.167969 -0.878906 Z M 1.796875 -0.878906 "/></g></g></g><g fill="#000000" fill-opacity="1"><g transform="translate(235.05803, 269.542885)"><g><path d="M 0.578125 0.601562 C 2.363281 -0.0117188 2.613281 -0.96875 2.613281 -2.1875 L 2.613281 -6.800781 C 2.261719 -6.8125 1.859375 -6.75 1.519531 -6.625 C 1.570312 -5.339844 1.582031 -3.910156 1.582031 -2.335938 C 1.582031 -0.816406 1.117188 -0.640625 0.0507812 -0.214844 C 0.101562 0.101562 0.339844 0.441406 0.578125 0.601562 Z M 0.578125 0.601562 "/></g></g></g><g fill="#000000" fill-opacity="1"><g transform="translate(241.279508, 269.542885)"><g><path d="M 3.429688 0.175781 C 5.191406 0.175781 6.160156 -0.691406 6.171875 -2.351562 L 6.207031 -6.800781 C 5.871094 -6.8125 5.46875 -6.75 5.128906 -6.625 C 5.164062 -4.988281 5.203125 -3.417969 5.191406 -2.25 C 5.164062 -1.21875 4.625 -0.714844 3.558594 -0.714844 C 2.375 -0.714844 1.785156 -1.207031 1.785156 -2.238281 L 1.785156 -6.800781 C 1.445312 -6.8125 1.042969 -6.75 0.703125 -6.625 C 0.742188 -4.488281 0.765625 -3.140625 0.765625 -2.136719 C 0.777344 -0.589844 1.695312 0.175781 3.429688 0.175781 Z M 3.429688 0.175781 "/></g></g></g><g fill="#223a66" fill-opacity="1"><g transform="translate(70.050447, 243.715736)"><g><path d="M 2.25 -4.53125 C 1.476562 -5.46875 1.09375 -6.3125 1.09375 -7.0625 C 1.09375 -7.8125 1.722656 -8.800781 2.984375 -10.03125 C 3.722656 -10.726562 4.5 -11.078125 5.3125 -11.078125 C 6.132812 -11.078125 7.28125 -10.347656 8.75 -8.890625 C 9.164062 -8.390625 9.753906 -7.910156 10.515625 -7.453125 C 11.273438 -7.003906 11.976562 -6.78125 12.625 -6.78125 C 15.351562 -6.78125 16.71875 -7.890625 16.71875 -10.109375 C 16.71875 -10.785156 16.34375 -11.347656 15.59375 -11.796875 C 14.84375 -12.253906 13.910156 -12.585938 12.796875 -12.796875 C 11.679688 -13.003906 10.476562 -13.332031 9.1875 -13.78125 C 7.894531 -14.238281 6.691406 -14.773438 5.578125 -15.390625 C 4.472656 -16.003906 3.546875 -16.976562 2.796875 -18.3125 C 2.046875 -19.65625 1.671875 -21.265625 1.671875 -23.140625 C 1.671875 -25.710938 2.628906 -27.957031 4.546875 -29.875 C 6.472656 -31.800781 9.09375 -32.765625 12.40625 -32.765625 C 14.164062 -32.765625 15.769531 -32.535156 17.21875 -32.078125 C 18.664062 -31.628906 19.671875 -31.171875 20.234375 -30.703125 L 21.328125 -29.859375 C 22.242188 -29.015625 22.703125 -28.296875 22.703125 -27.703125 C 22.703125 -27.117188 22.347656 -26.316406 21.640625 -25.296875 C 20.640625 -23.828125 19.613281 -23.09375 18.5625 -23.09375 C 17.945312 -23.09375 17.1875 -23.382812 16.28125 -23.96875 C 16.1875 -24.03125 16.015625 -24.175781 15.765625 -24.40625 C 15.515625 -24.644531 15.289062 -24.835938 15.09375 -24.984375 C 14.46875 -25.367188 13.675781 -25.5625 12.71875 -25.5625 C 11.769531 -25.5625 10.976562 -25.332031 10.34375 -24.875 C 9.71875 -24.414062 9.40625 -23.78125 9.40625 -22.96875 C 9.40625 -22.164062 9.78125 -21.515625 10.53125 -21.015625 C 11.28125 -20.523438 12.210938 -20.191406 13.328125 -20.015625 C 14.441406 -19.835938 15.65625 -19.566406 16.96875 -19.203125 C 18.289062 -18.835938 19.507812 -18.390625 20.625 -17.859375 C 21.738281 -17.328125 22.671875 -16.410156 23.421875 -15.109375 C 24.171875 -13.804688 24.546875 -12.203125 24.546875 -10.296875 C 24.546875 -8.390625 24.160156 -6.707031 23.390625 -5.25 C 22.628906 -3.800781 21.632812 -2.679688 20.40625 -1.890625 C 18.03125 -0.335938 15.492188 0.4375 12.796875 0.4375 C 11.421875 0.4375 10.113281 0.269531 8.875 -0.0625 C 7.644531 -0.40625 6.648438 -0.820312 5.890625 -1.3125 C 4.335938 -2.257812 3.253906 -3.171875 2.640625 -4.046875 Z M 2.25 -4.53125 "/></g></g></g><g fill="#223a66" fill-opacity="1"><g transform="translate(95.684215, 243.715736)"><g><path d="M 16.796875 -20.71875 C 16.972656 -22.363281 18.132812 -23.1875 20.28125 -23.1875 C 21.425781 -23.1875 22.273438 -23.097656 22.828125 -22.921875 C 23.378906 -22.742188 23.765625 -22.429688 23.984375 -21.984375 C 24.210938 -21.546875 24.347656 -21.160156 24.390625 -20.828125 C 24.429688 -20.492188 24.453125 -19.988281 24.453125 -19.3125 L 24.453125 -3.921875 C 24.453125 -3.242188 24.429688 -2.734375 24.390625 -2.390625 C 24.347656 -2.054688 24.222656 -1.671875 24.015625 -1.234375 C 23.609375 -0.472656 22.601562 -0.09375 21 -0.09375 C 19.40625 -0.09375 18.335938 -0.289062 17.796875 -0.6875 C 17.253906 -1.082031 16.9375 -1.660156 16.84375 -2.421875 C 15.757812 -0.867188 13.945312 -0.09375 11.40625 -0.09375 C 8.875 -0.09375 6.519531 -1.25 4.34375 -3.5625 C 2.175781 -5.875 1.09375 -8.5625 1.09375 -11.625 C 1.09375 -14.695312 2.1875 -17.382812 4.375 -19.6875 C 6.5625 -21.988281 8.957031 -23.140625 11.5625 -23.140625 C 12.5625 -23.140625 13.472656 -22.960938 14.296875 -22.609375 C 15.117188 -22.253906 15.691406 -21.921875 16.015625 -21.609375 C 16.335938 -21.304688 16.597656 -21.007812 16.796875 -20.71875 Z M 8.796875 -11.5625 C 8.796875 -10.59375 9.175781 -9.71875 9.9375 -8.9375 C 10.695312 -8.164062 11.617188 -7.78125 12.703125 -7.78125 C 13.796875 -7.78125 14.703125 -8.175781 15.421875 -8.96875 C 16.140625 -9.757812 16.5 -10.628906 16.5 -11.578125 C 16.5 -12.535156 16.148438 -13.425781 15.453125 -14.25 C 14.765625 -15.070312 13.84375 -15.484375 12.6875 -15.484375 C 11.53125 -15.484375 10.59375 -15.070312 9.875 -14.25 C 9.15625 -13.425781 8.796875 -12.53125 8.796875 -11.5625 Z M 8.796875 -11.5625 "/></g></g></g><g fill="#223a66" fill-opacity="1"><g transform="translate(121.889582, 243.715736)"><g><path d="M 9.328125 -20.09375 C 10.703125 -22.175781 12.359375 -23.21875 14.296875 -23.21875 C 17.285156 -23.21875 19.515625 -21.941406 20.984375 -19.390625 C 21.304688 -19.835938 21.691406 -20.300781 22.140625 -20.78125 C 22.597656 -21.269531 23.320312 -21.796875 24.3125 -22.359375 C 25.3125 -22.929688 26.34375 -23.21875 27.40625 -23.21875 C 29.75 -23.21875 31.710938 -22.316406 33.296875 -20.515625 C 34.878906 -18.710938 35.671875 -15.726562 35.671875 -11.5625 L 35.671875 -3.875 C 35.671875 -3.195312 35.648438 -2.6875 35.609375 -2.34375 C 35.566406 -2.007812 35.425781 -1.625 35.1875 -1.1875 C 34.800781 -0.394531 33.671875 0 31.796875 0 C 29.953125 0 28.820312 -0.410156 28.40625 -1.234375 C 28.207031 -1.671875 28.082031 -2.054688 28.03125 -2.390625 C 27.988281 -2.734375 27.96875 -3.242188 27.96875 -3.921875 L 27.96875 -11.609375 C 27.96875 -14.160156 27.0625 -15.4375 25.25 -15.4375 C 24.21875 -15.4375 23.519531 -15.097656 23.15625 -14.421875 C 22.789062 -13.753906 22.609375 -12.800781 22.609375 -11.5625 L 22.609375 -3.875 C 22.609375 -3.164062 22.582031 -2.648438 22.53125 -2.328125 C 22.488281 -2.003906 22.351562 -1.625 22.125 -1.1875 C 21.71875 -0.394531 20.570312 0 18.6875 0 C 16.84375 0 15.71875 -0.410156 15.3125 -1.234375 C 15.101562 -1.671875 14.972656 -2.054688 14.921875 -2.390625 C 14.878906 -2.734375 14.859375 -3.242188 14.859375 -3.921875 L 14.859375 -11.609375 C 14.859375 -14.160156 13.953125 -15.4375 12.140625 -15.4375 C 10.378906 -15.4375 9.5 -14.160156 9.5 -11.609375 L 9.5 -3.828125 C 9.5 -3.148438 9.476562 -2.640625 9.4375 -2.296875 C 9.394531 -1.960938 9.253906 -1.578125 9.015625 -1.140625 C 8.578125 -0.378906 7.4375 0 5.59375 0 C 3.738281 0 2.609375 -0.394531 2.203125 -1.1875 C 1.992188 -1.625 1.867188 -2.003906 1.828125 -2.328125 C 1.785156 -2.648438 1.765625 -3.164062 1.765625 -3.875 L 1.765625 -19.359375 C 1.765625 -20.023438 1.785156 -20.523438 1.828125 -20.859375 C 1.867188 -21.203125 2.007812 -21.582031 2.25 -22 C 2.6875 -22.789062 3.722656 -23.1875 5.359375 -23.1875 C 7.003906 -23.1875 8.078125 -22.921875 8.578125 -22.390625 C 9.078125 -21.859375 9.328125 -21.09375 9.328125 -20.09375 Z M 9.328125 -20.09375 "/></g></g></g><g fill="#223a66" fill-opacity="1"><g transform="translate(159.306976, 243.715736)"><g><path d="M 16.796875 -20.71875 C 16.972656 -22.363281 18.132812 -23.1875 20.28125 -23.1875 C 21.425781 -23.1875 22.273438 -23.097656 22.828125 -22.921875 C 23.378906 -22.742188 23.765625 -22.429688 23.984375 -21.984375 C 24.210938 -21.546875 24.347656 -21.160156 24.390625 -20.828125 C 24.429688 -20.492188 24.453125 -19.988281 24.453125 -19.3125 L 24.453125 -3.921875 C 24.453125 -3.242188 24.429688 -2.734375 24.390625 -2.390625 C 24.347656 -2.054688 24.222656 -1.671875 24.015625 -1.234375 C 23.609375 -0.472656 22.601562 -0.09375 21 -0.09375 C 19.40625 -0.09375 18.335938 -0.289062 17.796875 -0.6875 C 17.253906 -1.082031 16.9375 -1.660156 16.84375 -2.421875 C 15.757812 -0.867188 13.945312 -0.09375 11.40625 -0.09375 C 8.875 -0.09375 6.519531 -1.25 4.34375 -3.5625 C 2.175781 -5.875 1.09375 -8.5625 1.09375 -11.625 C 1.09375 -14.695312 2.1875 -17.382812 4.375 -19.6875 C 6.5625 -21.988281 8.957031 -23.140625 11.5625 -23.140625 C 12.5625 -23.140625 13.472656 -22.960938 14.296875 -22.609375 C 15.117188 -22.253906 15.691406 -21.921875 16.015625 -21.609375 C 16.335938 -21.304688 16.597656 -21.007812 16.796875 -20.71875 Z M 8.796875 -11.5625 C 8.796875 -10.59375 9.175781 -9.71875 9.9375 -8.9375 C 10.695312 -8.164062 11.617188 -7.78125 12.703125 -7.78125 C 13.796875 -7.78125 14.703125 -8.175781 15.421875 -8.96875 C 16.140625 -9.757812 16.5 -10.628906 16.5 -11.578125 C 16.5 -12.535156 16.148438 -13.425781 15.453125 -14.25 C 14.765625 -15.070312 13.84375 -15.484375 12.6875 -15.484375 C 11.53125 -15.484375 10.59375 -15.070312 9.875 -14.25 C 9.15625 -13.425781 8.796875 -12.53125 8.796875 -11.5625 Z M 8.796875 -11.5625 "/></g></g></g><g fill="#08877b" fill-opacity="1"><g transform="translate(189.476668, 243.715736)"><g><path d="M 5.671875 -32.28125 L 13.8125 -32.234375 C 18.0625 -32.234375 21.796875 -30.703125 25.015625 -27.640625 C 28.242188 -24.578125 29.859375 -20.804688 29.859375 -16.328125 C 29.859375 -11.859375 28.28125 -8.023438 25.125 -4.828125 C 21.976562 -1.640625 18.160156 -0.046875 13.671875 -0.046875 L 5.625 -0.046875 C 3.84375 -0.046875 2.726562 -0.410156 2.28125 -1.140625 C 1.9375 -1.753906 1.765625 -2.691406 1.765625 -3.953125 L 1.765625 -28.40625 C 1.765625 -29.113281 1.785156 -29.628906 1.828125 -29.953125 C 1.867188 -30.273438 2.007812 -30.65625 2.25 -31.09375 C 2.65625 -31.882812 3.796875 -32.28125 5.671875 -32.28125 Z M 13.8125 -7.828125 C 15.925781 -7.828125 17.832031 -8.609375 19.53125 -10.171875 C 21.226562 -11.742188 22.078125 -13.71875 22.078125 -16.09375 C 22.078125 -18.46875 21.25 -20.453125 19.59375 -22.046875 C 17.9375 -23.648438 15.992188 -24.453125 13.765625 -24.453125 L 9.546875 -24.453125 L 9.546875 -7.828125 Z M 13.8125 -7.828125 "/></g></g></g><g fill="#08877b" fill-opacity="1"><g transform="translate(220.430657, 243.715736)"><g><path d="M 1.09375 -11.5625 C 1.09375 -15.082031 2.320312 -17.984375 4.78125 -20.265625 C 7.25 -22.554688 10.066406 -23.703125 13.234375 -23.703125 C 16.398438 -23.703125 19.203125 -22.566406 21.640625 -20.296875 C 24.078125 -18.023438 25.296875 -15.128906 25.296875 -11.609375 C 25.296875 -9.179688 24.664062 -7.019531 23.40625 -5.125 C 22.144531 -3.226562 20.609375 -1.832031 18.796875 -0.9375 C 16.992188 -0.0507812 15.125 0.390625 13.1875 0.390625 C 11.257812 0.390625 9.382812 -0.0820312 7.5625 -1.03125 C 5.75 -1.988281 4.21875 -3.394531 2.96875 -5.25 C 1.71875 -7.113281 1.09375 -9.21875 1.09375 -11.5625 Z M 10.296875 -8.421875 C 11.234375 -7.703125 12.1875 -7.34375 13.15625 -7.34375 C 14.125 -7.34375 15.085938 -7.707031 16.046875 -8.4375 C 17.015625 -9.175781 17.5 -10.265625 17.5 -11.703125 C 17.5 -13.140625 17.046875 -14.207031 16.140625 -14.90625 C 15.234375 -15.613281 14.25 -15.96875 13.1875 -15.96875 C 12.132812 -15.96875 11.15625 -15.597656 10.25 -14.859375 C 9.34375 -14.128906 8.890625 -13.050781 8.890625 -11.625 C 8.890625 -10.207031 9.359375 -9.140625 10.296875 -8.421875 Z M 10.296875 -8.421875 "/></g></g></g><g fill="#08877b" fill-opacity="1"><g transform="translate(246.811896, 243.715736)"><g><path d="M 9.015625 -11.578125 C 9.015625 -10.335938 9.425781 -9.375 10.25 -8.6875 C 11.070312 -8 11.941406 -7.65625 12.859375 -7.65625 C 13.785156 -7.65625 14.648438 -7.925781 15.453125 -8.46875 C 16.265625 -9.007812 16.921875 -9.28125 17.421875 -9.28125 C 18.296875 -9.28125 19.363281 -8.503906 20.625 -6.953125 C 21.300781 -6.097656 21.640625 -5.332031 21.640625 -4.65625 C 21.640625 -3.539062 20.832031 -2.503906 19.21875 -1.546875 C 17.550781 -0.367188 15.5 0.21875 13.0625 0.21875 C 10.332031 0.21875 7.707031 -0.765625 5.1875 -2.734375 C 3.988281 -3.671875 3.003906 -4.921875 2.234375 -6.484375 C 1.472656 -8.054688 1.09375 -9.785156 1.09375 -11.671875 C 1.09375 -13.566406 1.472656 -15.285156 2.234375 -16.828125 C 3.003906 -18.367188 3.988281 -19.609375 5.1875 -20.546875 C 7.625 -22.472656 10.21875 -23.4375 12.96875 -23.4375 C 14.082031 -23.4375 15.164062 -23.28125 16.21875 -22.96875 C 17.28125 -22.664062 18.0625 -22.367188 18.5625 -22.078125 L 19.265625 -21.640625 C 19.796875 -21.285156 20.207031 -21.003906 20.5 -20.796875 C 21.257812 -20.210938 21.640625 -19.546875 21.640625 -18.796875 C 21.640625 -18.054688 21.332031 -17.21875 20.71875 -16.28125 C 19.664062 -14.664062 18.65625 -13.859375 17.6875 -13.859375 C 17.125 -13.859375 16.332031 -14.179688 15.3125 -14.828125 C 14.78125 -15.328125 14.019531 -15.578125 13.03125 -15.578125 C 12.050781 -15.578125 11.132812 -15.222656 10.28125 -14.515625 C 9.4375 -13.804688 9.015625 -12.828125 9.015625 -11.578125 Z M 9.015625 -11.578125 "/></g></g></g><g fill="#08877b" fill-opacity="1"><g transform="translate(269.54373, 243.715736)"><g><path d="M 15.21875 -15.390625 L 12.359375 -15.578125 L 12.359375 -9.5 C 12.359375 -8.707031 12.484375 -8.132812 12.734375 -7.78125 C 12.984375 -7.425781 13.453125 -7.25 14.140625 -7.25 C 14.828125 -7.25 15.351562 -7.226562 15.71875 -7.1875 C 16.09375 -7.144531 16.484375 -7.007812 16.890625 -6.78125 C 17.566406 -6.394531 17.90625 -5.410156 17.90625 -3.828125 C 17.90625 -1.984375 17.492188 -0.851562 16.671875 -0.4375 C 16.234375 -0.226562 15.84375 -0.101562 15.5 -0.0625 C 15.164062 -0.0195312 14.675781 0 14.03125 0 C 10.976562 0 8.660156 -0.6875 7.078125 -2.0625 C 5.492188 -3.445312 4.703125 -5.78125 4.703125 -9.0625 L 4.703125 -15.578125 C 4.148438 -15.484375 3.550781 -15.4375 2.90625 -15.4375 C 2.257812 -15.4375 1.722656 -15.6875 1.296875 -16.1875 C 0.867188 -16.6875 0.65625 -17.535156 0.65625 -18.734375 C 0.65625 -19.941406 0.726562 -20.816406 0.875 -21.359375 C 1.019531 -21.898438 1.226562 -22.285156 1.5 -22.515625 C 1.96875 -22.898438 2.550781 -23.09375 3.25 -23.09375 L 4.703125 -22.921875 L 4.703125 -27.453125 C 4.703125 -28.117188 4.722656 -28.613281 4.765625 -28.9375 C 4.816406 -29.257812 4.957031 -29.613281 5.1875 -30 C 5.570312 -30.726562 6.703125 -31.09375 8.578125 -31.09375 C 10.566406 -31.09375 11.753906 -30.550781 12.140625 -29.46875 C 12.285156 -29 12.359375 -28.25 12.359375 -27.21875 L 12.359375 -22.921875 C 13.648438 -23.035156 14.625 -23.09375 15.28125 -23.09375 C 15.945312 -23.09375 16.445312 -23.066406 16.78125 -23.015625 C 17.113281 -22.972656 17.503906 -22.835938 17.953125 -22.609375 C 18.710938 -22.222656 19.09375 -21.09375 19.09375 -19.21875 C 19.09375 -17.375 18.695312 -16.242188 17.90625 -15.828125 C 17.457031 -15.628906 17.066406 -15.503906 16.734375 -15.453125 C 16.398438 -15.410156 15.894531 -15.390625 15.21875 -15.390625 Z M 15.21875 -15.390625 "/></g></g></g><g fill="#08877b" fill-opacity="1"><g transform="translate(289.285691, 243.715736)"><g><path d="M 24.109375 -14.359375 C 24.109375 -12.554688 23.660156 -11.222656 22.765625 -10.359375 C 21.867188 -9.492188 20.878906 -9.0625 19.796875 -9.0625 L 9.375 -9.0625 C 9.375 -8.238281 9.851562 -7.546875 10.8125 -6.984375 C 11.78125 -6.429688 12.75 -6.15625 13.71875 -6.15625 C 15.425781 -6.15625 16.757812 -6.332031 17.71875 -6.6875 L 18.203125 -6.859375 C 18.910156 -7.179688 19.5 -7.34375 19.96875 -7.34375 C 20.90625 -7.34375 21.710938 -6.679688 22.390625 -5.359375 C 22.765625 -4.566406 22.953125 -3.894531 22.953125 -3.34375 C 22.953125 -0.726562 19.832031 0.578125 13.59375 0.578125 C 11.425781 0.578125 9.5 0.203125 7.8125 -0.546875 C 6.125 -1.296875 4.8125 -2.285156 3.875 -3.515625 C 2.019531 -5.890625 1.09375 -8.546875 1.09375 -11.484375 C 1.09375 -15.171875 2.285156 -18.117188 4.671875 -20.328125 C 7.066406 -22.546875 10.054688 -23.65625 13.640625 -23.65625 C 17.710938 -23.65625 20.703125 -22.222656 22.609375 -19.359375 C 23.609375 -17.828125 24.109375 -16.160156 24.109375 -14.359375 Z M 14.828125 -13.0625 C 15.941406 -13.0625 16.5 -13.53125 16.5 -14.46875 C 16.5 -15.144531 16.238281 -15.6875 15.71875 -16.09375 C 15.207031 -16.507812 14.472656 -16.71875 13.515625 -16.71875 C 12.566406 -16.71875 11.625 -16.328125 10.6875 -15.546875 C 9.75 -14.773438 9.28125 -13.945312 9.28125 -13.0625 Z M 14.828125 -13.0625 "/></g></g></g><g fill="#08877b" fill-opacity="1"><g transform="translate(314.479777, 243.715736)"><g><path d="M 12.046875 -0.09375 C 9.085938 -0.09375 6.632812 -1.210938 4.6875 -3.453125 C 2.738281 -5.691406 1.765625 -8.425781 1.765625 -11.65625 L 1.765625 -19.359375 C 1.765625 -20.054688 1.785156 -20.566406 1.828125 -20.890625 C 1.867188 -21.210938 1.992188 -21.59375 2.203125 -22.03125 C 2.609375 -22.820312 3.75 -23.21875 5.625 -23.21875 C 7.675781 -23.21875 8.878906 -22.660156 9.234375 -21.546875 C 9.410156 -21.078125 9.5 -20.332031 9.5 -19.3125 L 9.5 -11.609375 C 9.5 -10.410156 9.84375 -9.472656 10.53125 -8.796875 C 11.21875 -8.117188 12.140625 -7.78125 13.296875 -7.78125 C 14.460938 -7.78125 15.40625 -8.128906 16.125 -8.828125 C 16.84375 -9.535156 17.203125 -10.460938 17.203125 -11.609375 L 17.203125 -19.390625 C 17.203125 -20.066406 17.222656 -20.570312 17.265625 -20.90625 C 17.304688 -21.25 17.445312 -21.640625 17.6875 -22.078125 C 18.0625 -22.835938 19.1875 -23.21875 21.0625 -23.21875 C 22.914062 -23.21875 24.046875 -22.820312 24.453125 -22.03125 C 24.660156 -21.59375 24.785156 -21.203125 24.828125 -20.859375 C 24.867188 -20.523438 24.890625 -20.023438 24.890625 -19.359375 L 24.890625 -3.78125 C 24.890625 -3.132812 24.867188 -2.640625 24.828125 -2.296875 C 24.785156 -1.960938 24.644531 -1.59375 24.40625 -1.1875 C 23.96875 -0.425781 22.84375 -0.046875 21.03125 -0.046875 C 19.238281 -0.046875 18.132812 -0.394531 17.71875 -1.09375 C 17.425781 -1.59375 17.28125 -2.195312 17.28125 -2.90625 C 17.164062 -2.695312 16.898438 -2.398438 16.484375 -2.015625 C 16.078125 -1.640625 15.6875 -1.320312 15.3125 -1.0625 C 14.3125 -0.414062 13.222656 -0.09375 12.046875 -0.09375 Z M 12.046875 -0.09375 "/></g></g></g><g fill="#08877b" fill-opacity="1"><g transform="translate(341.124825, 243.715736)"><g><path d="M 17.5 -22.921875 C 18.0625 -22.742188 18.523438 -22.441406 18.890625 -22.015625 C 19.253906 -21.585938 19.4375 -20.90625 19.4375 -19.96875 C 19.4375 -19.03125 19.15625 -18.003906 18.59375 -16.890625 C 18.039062 -15.773438 17.238281 -15.21875 16.1875 -15.21875 C 15.65625 -15.21875 15.144531 -15.332031 14.65625 -15.5625 C 14.175781 -15.800781 13.539062 -15.921875 12.75 -15.921875 C 11.957031 -15.921875 11.21875 -15.640625 10.53125 -15.078125 C 9.84375 -14.523438 9.5 -13.851562 9.5 -13.0625 L 9.5 -3.828125 C 9.5 -3.148438 9.476562 -2.640625 9.4375 -2.296875 C 9.394531 -1.960938 9.253906 -1.578125 9.015625 -1.140625 C 8.578125 -0.378906 7.4375 0 5.59375 0 C 4.175781 0 3.160156 -0.25 2.546875 -0.75 C 2.078125 -1.15625 1.816406 -1.785156 1.765625 -2.640625 C 1.765625 -2.929688 1.765625 -3.359375 1.765625 -3.921875 L 1.765625 -19.359375 C 1.765625 -20.023438 1.785156 -20.523438 1.828125 -20.859375 C 1.867188 -21.203125 1.992188 -21.582031 2.203125 -22 C 2.609375 -22.789062 3.75 -23.1875 5.625 -23.1875 C 7.382812 -23.1875 8.484375 -22.847656 8.921875 -22.171875 C 9.242188 -21.703125 9.40625 -21.21875 9.40625 -20.71875 C 9.550781 -20.925781 9.765625 -21.175781 10.046875 -21.46875 C 10.328125 -21.757812 10.921875 -22.15625 11.828125 -22.65625 C 12.742188 -23.15625 13.546875 -23.40625 14.234375 -23.40625 C 14.921875 -23.40625 15.5 -23.367188 15.96875 -23.296875 C 16.4375 -23.222656 16.945312 -23.097656 17.5 -22.921875 Z M 17.5 -22.921875 "/></g></g></g></svg>